<svg xmlns="http://www.w3.org/2000/svg" viewBox="0 0 2666.56724 406.40903"><defs><style>.a,.b{fill:#26a69a;}.b{stroke:#26a69a;stroke-width:3.06453px;}.c,.d,.e,.f{fill:#fff;}.c,.d,.e{stroke:#fff;}.c{stroke-linecap:round;stroke-linejoin:round;stroke-width:4.33558px;}.d{stroke-width:3.08034px;}.e{stroke-width:0.9241px;}.g{fill:#f1f1f1;}</style></defs><title>banner-white</title><path class="a" d="M286.16641,302.01651a89.21056,89.21056,0,0,1,126.67731.15992,90.46166,90.46166,0,0,1-.159,127.41017,89.21051,89.21051,0,0,1-126.67727-.15988A90.4617,90.4617,0,0,1,286.16641,302.01651Z" transform="translate(-39.84487 -49.4852)"/><path class="b" d="M412.946,304.27045,211.37344,101.01714S196.71858,82.70993,182.73818,96.736s4.18464,28.81157,4.18464,28.81157l70.40067,71.07159s14.332,11.97452,2.73579,23.60851c-11.22021,11.257-23.4657-2.811-23.4657-2.811L81.49644,60.94446S64.6,41.00145,48.00651,57.64911,51.19889,91.341,51.19889,91.341l121.2185,122.31192s17.12841,14.43976,3.76151,27.85035-27.68057-3.85313-27.68057-3.85313l-60.343-60.93028s-15.67185-18.91278-29.975-4.5629,4.4614,30.15988,4.4614,30.15988L287.5058,429.05513Z" transform="translate(-39.84487 -49.4852)"/><path class="c" d="M302.08058,318.0633a66.76754,66.76754,0,0,1,94.80864.11969,67.70393,67.70393,0,0,1-.119,95.35716,66.76754,66.76754,0,0,1-94.80864-.11969A67.70393,67.70393,0,0,1,302.08058,318.0633Z" transform="translate(-39.84487 -49.4852)"/><path class="a" d="M142.4834,56.33443a18.58553,18.58553,0,0,1,26.3911.0333,18.84618,18.84618,0,0,1-.03314,26.54379,18.58553,18.58553,0,0,1-26.3911-.0333A18.84618,18.84618,0,0,1,142.4834,56.33443Z" transform="translate(-39.84487 -49.4852)"/><path class="d" d="M395.93989,316.582,320.4073,240.77265s-8.671-10.99954-17.53571-2.06469,2.08979,17.63282,2.08979,17.63282l54.18286,54.38138Z" transform="translate(-39.84487 -49.4852)"/><path class="d" d="M345.05907,332.18316,269.52646,256.3738s-8.671-10.99954-17.53573-2.06464,2.08982,17.63277,2.08982,17.63277l54.18284,54.38138Z" transform="translate(-39.84487 -49.4852)"/><path class="d" d="M311.131,298.13068s8.74049,9.697,18.08538.27811-.16534-17.90907-.16534-17.90907l34.10806,34.50083-25.91429,9.20913Z" transform="translate(-39.84487 -49.4852)"/><path class="d" d="M339.75857,420.97745,264.226,345.168s-8.671-10.99954-17.53576-2.06464S248.78,360.73623,248.78,360.73623l54.18286,54.38138Z" transform="translate(-39.84487 -49.4852)"/><path class="e" d="M275.57754,355.30068s2.13226,2.25035,4.36945,1.10337a4.2706,4.2706,0,0,0,2.22577-3.62024l4.10679,13.60008Z" transform="translate(-39.84487 -49.4852)"/><path class="f" d="M219.21148,315.63592a12.299,12.299,0,0,1,17.46431.022,12.47145,12.47145,0,0,1-.02192,17.56535,12.299,12.299,0,0,1-17.46431-.022A12.47145,12.47145,0,0,1,219.21148,315.63592Z" transform="translate(-39.84487 -49.4852)"/><path class="d" d="M291.29327,309.36951a10.1,10.1,0,0,1,1.40041,1.83734c3.645,5.87663,2.988,9.86889,1.75187,13.92336-1.09261,3.41724-4.46317,7.09645-6.60213,12.60333l2.01882,2.07769,15.84736-15.97273Z" transform="translate(-39.84487 -49.4852)"/><path class="g" d="M514.58984,373.80664V103.00732l2.05127-2.46191,30.36279-4.103L549.876,98.0835l132.938,200.228,10.668,19.69434V103.00732l2.05127-2.46191,30.3623-4.103,2.05176,1.64111V373.80664l-2.05176,2.05176H696.76416l-3.28223-2.05176L559.72314,171.93848l-10.668-19.69531V373.80664l-2.05127,2.05176H516.64111Z" transform="translate(-39.84487 -49.4852)"/><path class="g" d="M804.668,373.80664V100.95557l2.05127-2.05127h142.375l2.05176,2.05127v28.72119l-2.05176,2.05176H839.1333v82.06055h95.60059l1.64111,2.05176-7.38525,28.7207-2.46191,2.05176H839.1333v96.4209H949.50488l1.64111,2.05176-4.103,28.7207-2.46191,2.05176H806.71924Z" transform="translate(-39.84487 -49.4852)"/><path class="g" d="M1061.92139,373.80664V131.72852H985.605l-2.05127-2.05176V100.95557L985.605,98.9043h192.43213l1.64111,2.05127-7.38525,28.72119-2.46191,2.05176h-73.44434V373.80664l-2.05127,2.05176h-30.3623Z" transform="translate(-39.84487 -49.4852)"/><path class="g" d="M1610.09668,282.75293V105.50244l2.05176-2.46191,30.3623-4.103,2.05078,1.64111V279.06055q0,35.29248,20.10547,53.33887,20.09766,18.06006,52.51856,18.05371,33.63867,0,53.13379-18.05371,19.48389-18.0498,19.49023-53.33887V105.50244l2.05078-2.46191,30.3623-4.103,2.05176,1.64111V282.75293q0,48.832-28.31055,74.6748-28.311,25.8501-78.77832,25.84961-50.064,0-78.57324-25.84961Q1610.09033,331.5791,1610.09668,282.75293Z" transform="translate(-39.84487 -49.4852)"/><path class="g" d="M1880.48242,358.65918l-.82031-2.87207,16.82227-22.97754,3.69336-.41016q8.61621,7.38574,25.43848,12.71973,16.81934,5.33643,30.77246,5.334,23.792,0,38.77344-11.48828,14.97363-11.48291,14.97656-35.69629,0-18.05127-12.71973-29.542a92.94134,92.94134,0,0,0-30.56738-18.05371q-17.84766-6.55811-35.90137-14.36035a77.90685,77.90685,0,0,1-30.77246-24.00293q-12.72363-16.2041-12.71973-41.23535,0-35.69678,23.79785-57.2373,23.79053-21.54053,58.2627-21.54053a138.04469,138.04469,0,0,1,35.49121,4.51318q17.02148,4.51978,24.61816,8.82129,7.58789,4.30811,10.46289,7.18066l.41016,2.87207-15.5918,23.79785-3.28223.41016q-19.69482-14.77148-50.4668-14.771-23.80078,0-36.10742,12.30908-12.30908,12.30908-12.30859,32.41406,0,16.82813,12.71973,27.49023a101.42981,101.42981,0,0,0,30.56738,17.23242q17.84766,6.56836,35.90137,14.56543,18.0498,8.001,30.77246,25.23438,12.71338,17.23242,12.71973,43.49121,0,22.15723-8.001,38.36328-8.001,16.21436-21.74609,25.0293a103.569,103.569,0,0,1-28.72168,12.92383,120.05659,120.05659,0,0,1-31.79785,4.10352q-16.415,0-38.1582-6.56543Q1895.24707,370.15381,1880.48242,358.65918Z" transform="translate(-39.84487 -49.4852)"/><path class="g" d="M2153.332,376.30176V134.22363h-76.31641l-2.05176-2.05176V103.45068l2.05176-2.05127h192.43164l1.6416,2.05127-7.38574,28.72119-2.46191,2.05176h-73.44336V376.30176l-2.05176,2.05176h-30.36231Z" transform="translate(-39.84487 -49.4852)"/><path class="g" d="M2310.47559,376.30176V103.45068l2.05176-2.05127h142.375l2.05078,2.05127v28.72119l-2.05078,2.05176H2344.94141v82.06055H2440.541l1.6416,2.05176-7.38574,28.7207-2.46191,2.05176h-87.39356v96.4209H2455.3125l1.64063,2.05176-4.10254,28.7207-2.46191,2.05176H2312.52734Z" transform="translate(-39.84487 -49.4852)"/><path class="g" d="M2520.95508,376.30176V103.45068l2.05176-2.05127H2596.04q36.92725,0,60.31445,14.36035,34.05322,21.75293,34.05566,67.29a86.04256,86.04256,0,0,1-4.51367,28.51563q-4.519,12.92432-11.48828,20.92578a90.24832,90.24832,0,0,1-15.5918,14.15527,66.38205,66.38205,0,0,1-17.02734,9.02637q-8.41406,2.87549-15.38672,4.71875a72.21257,72.21257,0,0,1-11.48828,2.25684l-4.5127.41016,9.02637,9.02637,48.00488,57.85254q14.77148,17.23389,32.82422,17.2334a16.40279,16.40279,0,0,0,2.25684-.20508,17.24139,17.24139,0,0,1,2.25684-.20605l1.6416,2.05176-4.51367,27.90039-2.46192,2.05176a67.39468,67.39468,0,0,1-8.61621.82031q-27.90674,0-54.57031-34.05469l-64.00684-79.59863-2.87207-1.6416h-13.9502v112.0127l-2.05176,2.05176h-30.36231Zm34.46582-143.60547h40.209q25.8501,0,43.082-11.69336,17.23242-11.69385,17.23242-37.95312,0-25.8501-17.4375-37.95312-17.44482-12.09814-42.877-12.104h-40.209Z" transform="translate(-39.84487 -49.4852)"/><path class="g" d="M1575.88115,343.8434c-2.76478.003-5.28943.70458-7.77788,0h-2.82849v-.35323h-1.76767v-.35361H1562.093v-.35361H1560.679v-.35361h-1.06083v-.35361q-.88383-.17643-1.76767-.35361v-.35323h-.70722v-.35361h-1.06045v-.35361q-.70684-.177-1.41406-.35361v-.35361h-.70722q-.177-.35342-.35361-.70684-.70684-.177-1.41406-.35361-.177-.35342-.35361-.70722h-.70722v-.35361h-.70684q-.354-.52985-.70722-1.06045h-.70722l-.70684-1.06083h-.70722q-.53041-.70684-1.06045-1.41406h-.70722q-2.12109-2.29751-4.24255-4.59616-1.06083-.88383-2.12127-1.76767v-.70684q-.88383-.70741-1.76767-1.41444v-.70684q-.88383-.70741-1.76767-1.41444v-.70684q-.88383-.70741-1.76767-1.41444v-.70684h-.35361q-.35342-.53041-.70722-1.06083-.35342-.17643-.70722-.35361v-.70684q-.88383-.70741-1.76767-1.41444v-.70684h-.35361l-.70684-1.06083q-.35342-.17643-.70722-.35361v-.70684q-.70684-.53041-1.41406-1.06083v-.70684q-.88383-.70741-1.76767-1.41444v-.70684q-.88383-.70741-1.76767-1.41444v-.70684q-.88383-.70741-1.768-1.41444V306.368q-.88383-.70741-1.76767-1.41444v-.70684q-.88383-.70741-1.76767-1.41444v-.70684h-.35361l-.70684-1.06083q-.354-.17643-.70722-.35361v-.70684q-.88383-.70741-1.76767-1.41444v-.70684q-.70741-.53041-1.41406-1.06083v-.70684q-.8844-.70741-1.768-1.41444V293.994q-.88383-.70741-1.76767-1.41444v-.70684q-.88383-.70741-1.76767-1.41444v-.70684q-.88383-.70741-1.76767-1.41444v-.70684q-.88383-.70741-1.76767-1.41444v-.70684q-.88383-.70741-1.76767-1.41444v-.70684q-.88383-.70741-1.76767-1.41444v-.70684q-.354-.177-.70722-.35361v-.35361q-.35342-.17643-.70722-.35361v-.70684q-.88383-.70741-1.76767-1.41444v-.70684q-.88383-.70741-1.76767-1.41444v-.70684q-.88383-.70741-1.76767-1.41444v-.70684q-.88383-.70741-1.76767-1.41444v-.70684q-1.94409-1.76767-3.88894-3.53533c-1.58709-1.58709-2.9823-3.786-4.94977-4.94977,1.183-1.11323,3.0494-.16323,4.94977-.70722q5.30244-1.06026,10.606-2.12128v-.35361q2.47451-.52985,4.94977-1.06045v-.35361l3.53533-.70684v-.35361h1.06083v-.35361h1.06045v-.35361h1.06083V255.811h1.06045v-.35361q1.59124-.35342,3.1821-.70684V254.397q.88383-.177,1.76767-.35361v-.35361q.70684-.17643,1.41406-.35361v-.35323h1.06083v-.35361q1.06026-.35342,2.12128-.70722v-.35361q.70684-.17643,1.41406-.35361.177-.35342.35361-.70684,1.06026-.35342,2.12127-.70722v-.35361q.53041-.17643,1.06045-.35361.177-.35342.35361-.70684.70684-.177,1.41406-.35361.177-.35342.35361-.70722h.70722q.35342-.53041.70684-1.06045h.70722q.177-.35342.35361-.70722h.70722q.17643-.35342.35323-.70684.53041-.177,1.06083-.35361.53041-.70741,1.06045-1.41443h.70722q.35342-.52985.70722-1.06045.53041-.177,1.06045-.35361,1.59124-1.76767,3.1821-3.53533h.70684q.88383-1.06083,1.76767-2.12128.354-.177.70722-.35361v-.70722q1.59124-1.41425,3.1821-2.82812v-.70722q.70684-.53041,1.41406-1.06045v-.70722q.53041-.35342,1.06045-.70722v-.70684q.354-.177.70722-.35361V227.174q.35342-.177.70722-.35361.17643-.53041.35361-1.06045h.35323q.354-1.06083.70722-2.12128.35342-.177.70722-.35361.17643-.70684.35323-1.41406h.35361v-.70722h.35361q.35342-1.06083.70722-2.12128h.35361V217.982h.35323q.177-.70741.35361-1.41443h.35361v-1.06045h.35361v-.70722h.35361q.17643-1.06083.35361-2.12128h.35323v-.70722h.35361q.177-1.23725.35361-2.47451h.35361v-1.06083h.35361v-1.06045h.35361q1.06026-5.303,2.12128-10.60638v-3.1821h.35323v-4.59578c.35926-1.27646.83841-8.51187.35361-10.25277h-.35361v-4.94977h-.35323v-3.18172q-1.23782-6.18627-2.47488-12.374h-.35361v-1.06083h-.35361v-1.06045h-.35361V155.051h-.35361v-1.06045H1556.79q-.177-1.06083-.35361-2.12128h-.35361v-.70722h-.35361V150.1016h-.35361q-.17643-.70741-.35361-1.41443h-.35323v-1.06045h-.35361q-.35342-1.06083-.70722-2.12128h-.35361q-.17643-.70741-.35361-1.41444-.35342-.17643-.70684-.35323-.35342-1.06083-.70722-2.12128-.35342-.177-.70684-.35361-.177-.70741-.35361-1.41444h-.35361q-.177-.52985-.35361-1.06045-.35342-.177-.70722-.35361v-.70684q-.35342-.177-.70684-.35361v-.70722q-.53041-.35342-1.06083-.70722v-.70684q-.70684-.53041-1.41406-1.06083V133.485q-.88383-.70741-1.76767-1.41444v-.70684q-2.12109-1.94409-4.24255-3.88932-.88383-1.06026-1.76767-2.1209h-.70722q-.70684-.8844-1.41406-1.768h-.70722q-.177-.35342-.35361-.70684h-.35361q-.17643-.354-.35323-.70722h-.70722q-.35342-.53041-.70722-1.06045h-.70684q-.177-.354-.35361-.70722-.53041-.177-1.06083-.35361v-.35361h-.70684q-.177-.35342-.35361-.70684h-.70722q-.17643-.354-.35361-.70722-.52985-.177-1.06045-.35361v-.35361h-.70722v-.35361h-.70684v-.35323h-.70722v-.35361h-.70722q-.17643-.35342-.35361-.70722-.70684-.17643-1.41406-.35361v-.35361q-1.06083-.35342-2.12128-.70684v-.35361h-1.06045v-.35361h-.70722v-.35361q-.70684-.17643-1.41406-.35323v-.35361h-1.06083v-.35361h-.70684v-.35361l-13.78848-4.24255q-7.42352-1.23725-14.84893-2.47488c-2.08433-.599-7.51928.3849-8.83833-.70684h-80.25449c-.26276.12591-1.1562,1.41067-1.76767,1.76767V216.92122H1253.80275V103.43354a6.72426,6.72426,0,0,1-1.06083-1.06045,12.11641,12.11641,0,0,0-4.59616,0v.35323h-2.47451v.35361h-2.82849v.35361h-2.47489v.35361H1237.893v.35361h-2.82812v.35361H1232.59v.35323h-2.82849v.35361c-1.55618.44785-4.28553-.16286-5.303.70722h-2.12127v.35361c-.87686.622-1.26063,1.53771-2.12128,2.12128V372.834c.12591.262,1.411,1.157,1.76767,1.768h30.05147c.25748-.124,1.16035-1.41217,1.76767-1.768V249.09359h142.47832V372.834c.12591.262,1.41067,1.15658,1.76767,1.768H1421.736c3.58095,0,7.34586.85952,8.13149-2.12128.734-.84595.35361-5.7501.35361-7.42465V263.23568H1443.656v.35323h.70684v.35361h.70722q.17643.35342.35361.70722h.70684v.35361q.70741.53041,1.41443,1.06045v.70722q.70684.53041,1.41406,1.06045v.70722q.88383.70684,1.76767,1.41406V270.66q.70741.53041,1.41406,1.06045v.70722q.354.177.70722.35361v.35361q.35342.17643.70722.35361v.70684q.70684.53041,1.41406,1.06083v.70684q.70684.53041,1.41406,1.06083v.70722q.70741.52985,1.41443,1.06045v.70722q.70684.53041,1.41406,1.06045v.70722q.70684.53041,1.41406,1.06045v.70722q.70741.53041,1.41444,1.06045v.70722q.88383.70741,1.76767,1.41406v.70722q.35342.177.70684.35361v.35361q.354.17643.70722.35361v.70684q.70684.53041,1.41406,1.06083v.70684q.70741.53041,1.41443,1.06083v.70722q.70684.52985,1.41406,1.06045v.70722q.70684.52985,1.41406,1.06045v.70722q.70741.53041,1.41443,1.06045v.70722q.70684.53041,1.41406,1.06045v.70722q.70684.53041,1.41406,1.06083v.70684q.70741.53041,1.41443,1.06083v.70684q.88383.70741,1.76767,1.41444v.70684q.35342.177.70684.35361v.35361q.354.177.70722.35361v.70684q.70684.53041,1.41406,1.06083v.70722q.354.17643.70722.35323v.35361q.35342.177.70722.35361v.70722q.70684.53041,1.41406,1.06045v.70722q.70684.53041,1.41406,1.06045v.70722q.70741.53041,1.41444,1.06083V315.56q.70684.53041,1.41406,1.06083v.70684q.70684.53041,1.41406,1.06083v.70684q.88383.70741,1.76767,1.41444v.70684q.70741.53041,1.41443,1.06083v.70722q.35342.17643.70684.35323v.35361q.354.177.70722.35361v.70722q.70684.53041,1.41406,1.06045V326.52q.70741.53041,1.41444,1.06045v.70722q.70684.53041,1.41406,1.06083v.70684q.70684.53041,1.41406,1.06083v.70684q.70741.53041,1.41443,1.06083v.70684q.70684.53041,1.41406,1.06083v.70722q.35342.17643.70722.35323v.35361q.35342.177.70684.35361v.70722q.88383.70684,1.76767,1.41406v.70722q.70741.53041,1.41444,1.06045v.70722q.35342.17643.70684.35361v.35323q.354.177.70722.35361v.70722q.70684.53041,1.41406,1.06045v.70722q.53041.35342,1.06083.70722.17643.53041.35361,1.06045,1.06026.88383,2.12128,1.76767v.70722q1.41368,1.23725,2.82812,2.47488v.70722q4.06575,3.88819,8.13149,7.77789l1.06083.70684v.35361h.70684q.70741.88383,1.41444,1.76767h.70684q.354.53041.70722,1.06083.53041.17643,1.06045.35361.177.35342.35361.70684h.70722q.177.354.35361.70722h.70684q.354.53041.70722,1.06045.70741.177,1.41406.35361.177.354.35361.70722.53041.177,1.06083.35361v.35361q1.06026.35342,2.12127.70684.17643.354.35361.70722.70684.177,1.41406.35361v.35361q1.06083.35342,2.12128.70684V371.42q.88383.177,1.76767.35361v.35361h.70722v.35361q1.06026.17643,2.12128.35323v.35361h.70684v.35361q1.23782.177,2.47488.35361v.35361h1.41406v.35361h1.41443v.35323h1.76767v.35361H1556.79c1.21991.354,8.20689.82446,9.89916.35361v-.35361h2.82812v-.35361c2.16274-.13081,2.16689-1.301,3.53571-2.12128q.70684-5.30244,1.41406-10.606h.35361v-2.12128c.58018-1.97614.838-4.7805,1.41406-6.71744v-2.12128h.35361c.4241-1.42688-.10442-3.64051.70722-4.59616C1577.10973,345.19375,1576.447,344.87067,1575.88115,343.8434ZM1482.899,231.41654c-4.78729,1.40124-11.61971,1.06083-17.677,1.06083H1430.2211V135.25267h34.29364q7.2471.17643,14.49532.35361v.35323q2.6515.177,5.30338.35361v.35361q1.76767.177,3.53533.35361v.35361h1.41406v.35361h1.41443v.35323h1.41406v.35361h1.06045v.35361h1.41444v.35361q1.06026.17643,2.12128.35361v.35323h.70684v.35361h1.06083v.35361h.70722v.35361h1.06045v.35361q1.06083.35342,2.12127.70684v.35361h.70722v.35361h.70684v.35361h.70722v.35361h.70722v.35361h.70684v.35323h.70722v.35361h.70722q.17643.35342.35323.70722.70741.177,1.41443.35361.17643.35342.35361.70684h.70684q.177.354.35361.70722h.70722l.70684,1.06083h.70722q.53041.70684,1.06083,1.41406h.70684q1.23725,1.41425,2.47488,2.82812.88383.70741,1.76767,1.41444v.70684q.53041.354,1.06083.70722v.70722q.52985.35342,1.06045.70684v.70722q.35342.177.70722.35361.17643.70684.35361,1.41406.35342.177.70684.35361.177.70684.35361,1.41406h.35361q.35342,1.06083.70722,2.12128h.35323q1.41425,4.59616,2.82849,9.19232.177,2.29751.35361,4.59616h.35361v4.59578h.35361v5.657h-.35361v4.94939h-.35361v2.47488h-.35361v2.12128h-.35361v1.41406h-.35361v1.41444h-.35323v1.41406h-.35361v1.06045h-.35361v1.06083h-.35361V203.84h-.35361v1.06083h-.35361q-.35342,1.06083-.70684,2.12128h-.35361v.70722h-.35361q-.35342,1.06026-.70722,2.12128-.35342.17643-.70684.35323v.70722q-.35342.177-.70722.35361v.70684q-.35342.177-.70722.35361v.70722q-.70684.53041-1.41406,1.06045v.70722q-1.41425,1.23725-2.82812,2.47488-.70741.88383-1.41444,1.76767a85.24956,85.24956,0,0,1-15.90938,8.83871q-5.65586,1.59067-11.3136,3.18173Q1485.021,231.23993,1482.899,231.41654Z" transform="translate(-39.84487 -49.4852)"/></svg>