<svg xmlns="http://www.w3.org/2000/svg" width="512" height="512" viewBox="0 0 135.46666 135.46667"><defs><filter id="a" color-interpolation-filters="sRGB"><feFlood flood-opacity=".12" flood-color="#000" result="flood"/><feComposite in="flood" in2="SourceGraphic" operator="in" result="composite1"/><feGaussianBlur in="composite" stdDeviation="1.5" result="blur"/><feOffset dy="1" result="offset"/><feComposite in="SourceGraphic" in2="offset" result="fbSourceGraphic"/><feColorMatrix result="fbSourceGraphicAlpha" in="fbSourceGraphic" values="0 0 0 -1 0 0 0 0 -1 0 0 0 0 -1 0 0 0 0 1 0"/><feFlood flood-opacity=".24" flood-color="#000" result="flood"/><feComposite in2="fbSourceGraphic" in="flood" operator="in" result="composite1"/><feGaussianBlur in="composite" stdDeviation="1" result="blur"/><feOffset dy="1" result="offset"/><feComposite in2="offset" in="fbSourceGraphic" result="composite2"/></filter><filter id="b" color-interpolation-filters="sRGB"><feFlood flood-opacity=".16" flood-color="#000" result="flood"/><feComposite in="flood" in2="SourceGraphic" operator="in" result="composite1"/><feGaussianBlur in="composite" stdDeviation="3" result="blur"/><feOffset dy="3" result="offset"/><feComposite in="SourceGraphic" in2="offset" result="fbSourceGraphic"/><feColorMatrix result="fbSourceGraphicAlpha" in="fbSourceGraphic" values="0 0 0 -1 0 0 0 0 -1 0 0 0 0 -1 0 0 0 0 1 0"/><feFlood flood-opacity=".23" flood-color="#000" result="flood"/><feComposite in2="fbSourceGraphic" in="flood" operator="in" result="composite1"/><feGaussianBlur in="composite" stdDeviation="3" result="blur"/><feOffset dy="3" result="offset"/><feComposite in2="offset" in="fbSourceGraphic" result="composite2"/></filter></defs><circle cx="108.42247" cy="106.17871" r="66.0186" fill="#2196f3" filter="url(#a)" transform="translate(-40.69 -38.445)"/><g transform="translate(-40.69 -38.445)" filter="url(#b)" font-family="Roboto" letter-spacing="0" word-spacing="0"><path fill="#fff" d="M110.29006756 139.90360817q10.1499694 0 16.97074413-5.13204906 6.9019884-5.2053671 7.4703793-13.4166437h9.3379794q-.4060055 7.2581887-5.03438836 13.27001705-4.62838286 5.93851025-12.3423613 9.3110007-7.63278575 3.3724905-16.40235325 3.3724905-17.2955538 0-27.44552428-10.8506145-10.06877145-10.850624-10.06877145-29.179372v-2.63933788q0-11.7304033 4.547187-20.74814867Q81.8701458 74.87320517 90.31492154 69.9611q8.52597578-4.9121052 19.89394278-4.9121052 14.45356048 0 23.7915294 7.77139076 9.4191721 7.7713898 10.0687767 20.45488478H134.731191q-.64959407-9.3110045-7.47037933-15.0295747-6.73958205-5.71857016-17.05194735-5.71857016-13.15436284 0-20.46234103 8.57785478-7.2267792 8.57785574-7.2267792 24.04731723v2.56602924q0 15.17620236 7.2267792 23.6807419 7.3079782 8.50453952 20.5435442 8.50453952z" style="-inkscape-font-specification:'Roboto Light'" font-weight="300" font-size="158.01698303"/><text x="95.21373" y="122.67265" stroke-width=".48333877" style="line-height:12.08346939px;-inkscape-font-specification:Roboto" font-size="92.80104828"><tspan x="95.21373" y="122.67265" fill="#fff" style="-inkscape-font-specification:'Roboto Light'" font-weight="300" font-size="46.40052414">4</tspan></text></g></svg>