<?xml version="1.0" encoding="utf-8"?>
<!-- Generator: Adobe Illustrator 21.0.2, SVG Export Plug-In . SVG Version: 6.00 Build 0)  -->
<svg version="1.1"
	 id="svg2" inkscape:export-filename="C:\Users\Daniel Fernández\Desktop\Cometa.png" inkscape:export-xdpi="89.699997" inkscape:export-ydpi="89.699997" inkscape:version="0.92.1 r" sodipodi:docname="CometaIsotipo.svg" xmlns:cc="http://creativecommons.org/ns#" xmlns:dc="http://purl.org/dc/elements/1.1/" xmlns:inkscape="http://www.inkscape.org/namespaces/inkscape" xmlns:rdf="http://www.w3.org/1999/02/22-rdf-syntax-ns#" xmlns:sodipodi="http://sodipodi.sourceforge.net/DTD/sodipodi-0.dtd" xmlns:svg="http://www.w3.org/2000/svg"
	 xmlns="http://www.w3.org/2000/svg" xmlns:xlink="http://www.w3.org/1999/xlink" x="0px" y="0px" viewBox="0 0 800.3 800.3"
	 style="enable-background:new 0 0 800.3 800.3;" xml:space="preserve">
<style type="text/css">
	.st0{fill:#26A69A;}
	.st1{fill:#26A69A;stroke:#26A69A;stroke-width:3.0645;}
	.st2{fill:#FFFFFF;stroke:#FFFFFF;stroke-width:4.3356;stroke-linecap:round;stroke-linejoin:round;}
	.st3{fill:#FFFFFF;stroke:#FFFFFF;stroke-width:3.0803;}
	.st4{fill:#FFFFFF;stroke:#FFFFFF;stroke-width:0.9241;}
	.st5{fill:#FFFFFF;}
</style>
<sodipodi:namedview  bordercolor="#666666" borderopacity="1.0" id="base" inkscape:current-layer="layer1" inkscape:cx="110.7553" inkscape:cy="273.05227" inkscape:document-units="px" inkscape:guide-bbox="true" inkscape:pageopacity="0.0" inkscape:pageshadow="2" inkscape:showpageshadow="false" inkscape:window-height="1013" inkscape:window-maximized="1" inkscape:window-width="1920" inkscape:window-x="0" inkscape:window-y="0" inkscape:zoom="1.2015291" pagecolor="#ffffff" showgrid="false" showguides="true" units="px">
	</sodipodi:namedview>
<g id="layer1" transform="translate(0,-552.36216)" inkscape:groupmode="layer" inkscape:label="Capa 1">
	<path id="circle4344" class="st0" d="M471.9,1023.4c45.2-45.4,118.5-45.3,163.6,0.2c45.1,45.5,45,119.2-0.2,164.5
		c-45.2,45.4-118.5,45.3-163.6-0.2S426.7,1068.8,471.9,1023.4z"/>
	<path id="path4346" inkscape:connector-curvature="0" sodipodi:nodetypes="cczccscczcczcczccc" class="st1" d="M635.7,1026.3
		L375.3,763.8c0,0-18.9-23.6-37-5.5c-18.1,18.1,5.4,37.2,5.4,37.2l90.9,91.8c0,0,18.5,15.5,3.5,30.5c-14.5,14.5-30.3-3.6-30.3-3.6
		L207.6,712.1c0,0-21.8-25.8-43.3-4.3c-21.4,21.5,4.1,43.5,4.1,43.5l156.6,158c0,0,22.1,18.6,4.9,36c-17.3,17.3-35.7-5-35.7-5
		l-77.9-78.7c0,0-20.2-24.4-38.7-5.9c-18.5,18.5,5.8,39,5.8,39l290.4,292.8L635.7,1026.3z"/>
	<path id="circle4348" class="st2" d="M492.5,1044.1c33.9-34,88.7-33.9,122.4,0.2c33.8,34.1,33.7,89.2-0.2,123.2
		c-33.9,34-88.7,33.9-122.4-0.2S458.6,1078.1,492.5,1044.1z"/>
	<path id="circle4350" class="st0" d="M286.4,706.1c9.4-9.5,24.7-9.4,34.1,0c9.4,9.5,9.4,24.8,0,34.3c-9.4,9.5-24.7,9.4-34.1,0
		C276.9,730.9,276.9,715.6,286.4,706.1z"/>
	<path id="path4352" inkscape:connector-curvature="0" sodipodi:nodetypes="cczccc" class="st3" d="M613.7,1042.2l-97.6-97.9
		c0,0-11.2-14.2-22.6-2.7c-11.4,11.5,2.7,22.8,2.7,22.8l70,70.2L613.7,1042.2z"/>
	<path id="path4354" inkscape:connector-curvature="0" sodipodi:nodetypes="cczccc" class="st3" d="M548,1062.4l-97.6-97.9
		c0,0-11.2-14.2-22.6-2.7c-11.4,11.5,2.7,22.8,2.7,22.8l70,70.2L548,1062.4z"/>
	<path id="path4356" inkscape:connector-curvature="0" sodipodi:nodetypes="czcccc" class="st3" d="M504.2,1018.4
		c0,0,11.3,12.5,23.4,0.4s-0.2-23.1-0.2-23.1l44.1,44.6l-33.5,11.9L504.2,1018.4z"/>
	<path id="path4358" inkscape:connector-curvature="0" sodipodi:nodetypes="cczccc" class="st3" d="M541.1,1177l-97.6-97.9
		c0,0-11.2-14.2-22.6-2.7c-11.4,11.5,2.7,22.8,2.7,22.8l70,70.2L541.1,1177z"/>
	<path id="path4360" inkscape:connector-curvature="0" sodipodi:nodetypes="czccc" class="st4" d="M458.2,1092.2
		c0,0,2.8,2.9,5.6,1.4c2.9-1.5,2.9-4.7,2.9-4.7l5.3,17.6L458.2,1092.2z"/>
	<path id="circle4362" class="st5" d="M385.4,1041c6.2-6.3,16.3-6.2,22.6,0s6.2,16.4,0,22.7c-6.2,6.3-16.3,6.2-22.6,0
		S379.2,1047.2,385.4,1041z"/>
	<path id="path4364" inkscape:connector-curvature="0" sodipodi:nodetypes="cccc" class="st3" d="M478.5,1032.9c0,0,0.8,0.8,1.8,2.4
		c4.7,7.6,3.9,12.7,2.3,18c-1.4,4.4-5.8,9.2-8.5,16.3l2.6,2.7l20.5-20.6L478.5,1032.9z"/>
</g>
</svg>
