<svg id="Layer_1" xmlns="http://www.w3.org/2000/svg" viewBox="0 0 500 500"><style>.st0{fill:#AD201C;} .st1{fill:#C22420;}</style><path id="avniE5mVs" class="st0" d="M180.8 93.5H10.5v28.2h170.3V93.5z"/><path id="c1vJaykp0e" class="st0" d="M299.4 235.9H10.5v28.2h288.9v-28.2z"/><path id="eaF8wr4zJ" class="st0" d="M444 376.7H10.5v28.2H444v-28.2z"/><path id="a1SeuQjwgh" class="st1" d="M215.2 107.6c0 18.8-15.4 34.1-34.3 34.1-19 0-34.3-15.3-34.3-34.1s15.4-34.2 34.3-34.2 34.3 15.4 34.3 34.2z"/><path id="b15GPB3ENt" class="st1" d="M333.7 248c0 18.8-15.4 34.1-34.3 34.1-19 0-34.3-15.3-34.3-34.1 0-18.9 15.4-34.2 34.3-34.2s34.3 15.3 34.3 34.2z"/><path id="hyQfF1OuW" class="st1" d="M479.5 390.8c0 18.9-15.4 34.1-34.3 34.1-19 0-34.3-15.3-34.3-34.1s15.4-34.1 34.3-34.1 34.3 15.3 34.3 34.1z"/></svg>