<?xml version="1.0" standalone="no"?>
<!DOCTYPE svg PUBLIC "-//W3C//DTD SVG 20010904//EN"
 "http://www.w3.org/TR/2001/REC-SVG-20010904/DTD/svg10.dtd">
<svg version="1.0" xmlns="http://www.w3.org/2000/svg"
 width="16.000000pt" height="16.000000pt" viewBox="0 0 16.000000 16.000000"
 preserveAspectRatio="xMidYMid meet">
<metadata>
Created by potrace 1.11, written by Peter Selinger 2001-2013
</metadata>
<g transform="translate(0.000000,16.000000) scale(0.002286,-0.002286)"
fill="#000000" stroke="none">
<path d="M415 6941 c-98 -24 -220 -127 -271 -229 -24 -49 -28 -69 -29 -142 0
-78 3 -92 37 -162 45 -95 -1 -47 1271 -1329 527 -532 972 -986 989 -1008 40
-54 68 -131 68 -184 0 -142 -167 -280 -298 -247 -102 25 -127 48 -740 664
-568 572 -601 603 -674 640 -67 34 -86 39 -145 39 -85 1 -143 -24 -213 -89
-71 -66 -104 -139 -104 -226 1 -58 7 -80 39 -146 43 -88 -154 115 1850 -1907
2298 -2319 2188 -2211 2355 -2317 336 -215 759 -283 1160 -188 417 98 779 382
983 770 274 520 227 1138 -121 1620 -30 41 -212 234 -407 430 -193 195 -915
924 -1604 1620 -1661 1677 -1623 1639 -1696 1675 -52 26 -71 30 -140 30 -97 0
-138 -18 -210 -90 -64 -64 -88 -114 -93 -195 -4 -73 17 -141 67 -214 16 -22
326 -341 690 -708 715 -721 711 -716 711 -821 0 -79 -56 -160 -139 -202 -54
-27 -137 -17 -205 26 -36 22 -308 290 -792 779 -1778 1795 -2002 2018 -2066
2055 -95 56 -192 76 -273 56z m4411 -3170 c21 -15 352 -344 734 -730 801 -809
810 -820 894 -1072 82 -246 86 -490 10 -729 -116 -371 -417 -667 -786 -774
-275 -80 -583 -53 -833 71 -170 85 -212 122 -748 660 -281 283 -522 530 -534
550 -50 84 -38 169 35 242 59 58 111 76 178 61 63 -14 87 -33 235 -177 70 -68
130 -123 135 -123 30 0 53 34 70 102 31 131 89 273 149 368 51 82 61 179 25
251 -15 29 -141 164 -374 399 -222 223 -359 369 -370 393 -40 87 -27 163 40
230 72 71 149 86 232 43 33 -17 164 -142 437 -416 215 -215 407 -400 427 -411
75 -39 161 -18 222 52 48 57 62 106 46 166 -12 43 -38 73 -271 308 -167 169
-264 274 -274 298 -25 60 -22 129 9 180 43 75 66 86 177 87 90 0 98 -2 135
-29z m-1435 -1294 c162 -86 137 -332 -38 -383 -140 -41 -264 54 -264 201 0
156 164 255 302 182z"/>
<path d="M1985 6917 c-165 -55 -257 -204 -225 -365 61 -300 454 -348 596 -72
11 22 19 65 22 116 4 72 1 88 -23 141 -50 112 -150 182 -269 189 -34 2 -79 -2
-101 -9z"/>
</g>
</svg>
