<?xml version="1.0" encoding="UTF-8" standalone="no"?>
<!DOCTYPE svg PUBLIC "-//W3C//DTD SVG 1.1//EN" "http://www.w3.org/Graphics/SVG/1.1/DTD/svg11.dtd">
<svg version="1.1" xmlns="http://www.w3.org/2000/svg" xmlns:xlink="http://www.w3.org/1999/xlink" preserveAspectRatio="xMidYMid meet" viewBox="0 0 500 500"><defs><path d="M179.54 86.49L9.2 86.49L9.2 131.18L179.54 131.18L179.54 86.49Z" id="avniE5mVs"></path><path d="M298.1 226.13L9.16 226.13L9.16 272.28L298.1 272.28L298.1 226.13Z" id="c1vJaykp0e"></path><path d="M443.91 368.83L10.44 368.83L10.44 415.29L443.91 415.29L443.91 368.83Z" id="eaF8wr4zJ"></path><path d="M213.88 108.83C213.88 127.68 198.49 142.98 179.54 142.98C160.58 142.98 145.2 127.68 145.2 108.83C145.2 89.99 160.58 74.68 179.54 74.68C198.49 74.68 213.88 89.99 213.88 108.83Z" id="a1SeuQjwgh"></path><path d="M332.44 249.21C332.44 268.06 317.05 283.36 298.1 283.36C279.15 283.36 263.76 268.06 263.76 249.21C263.76 230.36 279.15 215.06 298.1 215.06C317.05 215.06 332.44 230.36 332.44 249.21Z" id="b15GPB3ENt"></path><path d="M478.25 392.06C478.25 410.91 462.87 426.21 443.91 426.21C424.96 426.21 409.57 410.91 409.57 392.06C409.57 373.21 424.96 357.91 443.91 357.91C462.87 357.91 478.25 373.21 478.25 392.06Z" id="hyQfF1OuW"></path></defs><g visibility="inherit"><g visibility="inherit"><g visibility="inherit"><use xlink:href="#avniE5mVs" opacity="1" fill="#ad201c" fill-opacity="1"></use></g><g visibility="inherit"><use xlink:href="#c1vJaykp0e" opacity="1" fill="#ad201c" fill-opacity="1"></use></g><g visibility="inherit"><use xlink:href="#eaF8wr4zJ" opacity="1" fill="#ad201c" fill-opacity="1"></use></g><g visibility="inherit"><use xlink:href="#a1SeuQjwgh" opacity="1" fill="#ad201c" fill-opacity="1"></use></g><g visibility="inherit"><use xlink:href="#b15GPB3ENt" opacity="1" fill="#ad201c" fill-opacity="1"></use></g><g visibility="inherit"><use xlink:href="#hyQfF1OuW" opacity="1" fill="#ad201c" fill-opacity="1"></use></g></g></g></svg>