<?xml version="1.0" encoding="iso-8859-1"?>
<!-- Generator: Adobe Illustrator 19.0.0, SVG Export Plug-In . SVG Version: 6.00 Build 0)  -->
<svg version="1.1" id="Layer_1" xmlns="http://www.w3.org/2000/svg" xmlns:xlink="http://www.w3.org/1999/xlink" x="0px" y="0px"
	 viewBox="0 0 318.661 318.661" style="enable-background:new 0 0 318.661 318.661;" xml:space="preserve">
<g>
	<g>
		<path style="fill:#DBB491;" d="M303.529,253.214c-11.151-37.754-67.121-33.566-91.279-44.408
			c-24.157-10.842-20.386-47.219-23.449-53.548h-58.932c-3.058,6.329,0.714,42.711-23.449,53.548
			c-24.157,10.842-80.133,6.655-91.279,44.408c-6.149,20.824-5.857,27.193-7.554,50.26c0,0,76.8,15.187,150.014,15.187
			s153.488-15.187,153.488-15.187C309.386,280.401,309.678,274.039,303.529,253.214z"/>
		<path style="fill:#636358;" d="M303.237,253.276c-11.14-37.714-67.054-33.533-91.195-44.364c-3.367-1.512-6.115-3.58-8.493-5.935
			l-44.217,48.236l-44.352-48.388c-2.411,2.422-5.222,4.536-8.667,6.082c-24.135,10.831-80.054,6.649-91.194,44.369
			c-6.143,20.802-5.851,27.164-7.548,50.209c0,0,76.727,15.176,149.868,15.176s153.342-15.176,153.342-15.176
			C309.082,280.441,309.38,274.078,303.237,253.276z"/>
		<path style="fill:#CCA483;" d="M203.679,202.842c-14.614-14.541-12.242-42.149-14.872-47.59h-31.206
			c0,0-0.719,51.024,23.438,61.866c2.147,0.961,4.615,1.782,7.211,2.546l15.299-16.693
			C203.589,202.932,203.639,202.887,203.679,202.842z"/>
		<path style="fill:#515147;" d="M272.318,261.527c5.857,19.83,5.868,26.552,7.324,47.073c19.234-2.816,31.442-5.126,31.442-5.126
			c-1.697-23.067-1.405-29.435-7.554-50.26c-11.151-37.754-67.121-33.566-91.279-44.408c-3.395-1.523-6.183-3.586-8.571-5.963
			c-0.039,0.045-0.09,0.09-0.129,0.135l-15.299,16.693C214.865,227.522,262.161,227.129,272.318,261.527z"/>
		<path style="fill:#C69E7F;" d="M121.938,192.855c9.78,7.959,21.24,15.85,37.338,18.132c16.137-2.288,27.569-10.342,37.36-18.334
			c-8.144-14.973-5.626-32.83-7.83-37.4h-58.937C127.654,159.828,130.122,177.876,121.938,192.855z"/>
		
			<ellipse transform="matrix(-0.177 0.9842 -0.9842 -0.177 385.1878 -85.5875)" style="fill:#CCA483;" cx="228.378" cy="118.254" rx="21.386" ry="11.629"/>
		
			<ellipse transform="matrix(-0.9842 0.177 -0.177 -0.9842 199.7512 218.703)" style="fill:#DBB491;" cx="90.121" cy="118.261" rx="11.629" ry="21.386"/>
		<path style="fill:#DBB491;" d="M223.497,47.061h-64.221H95.089c0,0-35.989,146.614,64.187,160.806
			C259.492,193.675,223.497,47.061,223.497,47.061z"/>
		<path style="fill:#CCA483;" d="M159.276,207.867c100.216-14.192,64.221-160.806,64.221-160.806h-15.024
			c4.114,61.242,9.808,93.774-13.815,129.24C175.941,204.405,159.276,207.867,159.276,207.867z"/>
		<path style="fill:#CCA483;" d="M219.406,139.897l-2.81-61.321c-0.54-11.826-10.572-20.071-22.235-18.048
			c-7.459,1.293-14.451,3.215-20.212,5.087c-9.819,3.187-20.352,3.181-30.171,0c-5.744-1.866-12.714-3.783-20.15-5.075
			c-11.309-1.967-21.741,6.627-22.235,18.093l-2.653,61.265l6.587-61.096c0.348-8.06,7.11-14.614,15.063-14.614
			c0.843,0,1.703,0.073,2.569,0.225c6.256,1.09,12.854,2.748,19.61,4.941c5.283,1.714,10.769,2.58,16.305,2.58
			s11.016-0.866,16.294-2.58c6.79-2.198,13.411-3.867,19.667-4.946c0.961-0.169,1.911-0.247,2.838-0.247
			c8.184,0,14.406,6.138,14.799,14.597L219.406,139.897z"/>
		<path style="fill:#393C3D;" d="M230.99,39.417c0,0-9.156-39.372-71.865-39.417l0,0c-0.017,0-0.034,0-0.051,0s-0.034,0-0.051,0l0,0
			C96.314,0.045,87.158,39.417,87.158,39.417c-7.588,26.855-2.136,60.096-2.136,60.096l6.992,40.03l6.925,0.354l2.653-61.265
			c0.495-11.466,10.926-20.06,22.235-18.093c7.436,1.293,14.406,3.209,20.15,5.075c9.819,3.187,20.352,3.187,30.171,0
			c5.761-1.866,12.753-3.788,20.212-5.087c11.663-2.023,21.69,6.222,22.235,18.048l2.81,61.321l6.852-0.36l6.868-40.019
			C233.126,99.513,238.577,66.273,230.99,39.417z"/>
		<path style="fill:#393C3D;" d="M187.436,172.525h-56.206v-5.424c0-3.209,2.608-5.817,5.817-5.817h44.566
			c3.215,0,5.823,2.608,5.823,5.817V172.525z"/>
	</g>
</g>
<g>
</g>
<g>
</g>
<g>
</g>
<g>
</g>
<g>
</g>
<g>
</g>
<g>
</g>
<g>
</g>
<g>
</g>
<g>
</g>
<g>
</g>
<g>
</g>
<g>
</g>
<g>
</g>
<g>
</g>
</svg>
