<?xml version="1.0" encoding="utf-8"?>
<!-- Generator: Adobe Illustrator 21.0.2, SVG Export Plug-In . SVG Version: 6.00 Build 0)  -->
<svg version="1.1" id="Layer_1" xmlns="http://www.w3.org/2000/svg" xmlns:xlink="http://www.w3.org/1999/xlink" x="0px" y="0px"
	 viewBox="0 0 500 500" style="enable-background:new 0 0 500 500;" xml:space="preserve">
<style type="text/css">
	.st0{fill:#AD201C;}
	.st1{fill:#C22420;}
</style>
<g>
	<g>
		<g>
			<g>
				<path id="avniE5mVs" class="st0" d="M180.8,93.5H10.5v28.2h170.3V93.5z"/>
			</g>
		</g>
		<g>
			<g>
				<path id="c1vJaykp0e" class="st0" d="M299.4,235.9H10.5v28.2h288.9V235.9z"/>
			</g>
		</g>
		<g>
			<g>
				<path id="eaF8wr4zJ" class="st0" d="M444,376.7H10.5v28.2H444V376.7z"/>
			</g>
		</g>
		<g>
			<g>
				<path id="a1SeuQjwgh" class="st1" d="M215.2,107.6c0,18.8-15.4,34.1-34.3,34.1c-19,0-34.3-15.3-34.3-34.1
					c0-18.8,15.4-34.2,34.3-34.2C199.8,73.4,215.2,88.8,215.2,107.6z"/>
			</g>
		</g>
		<g>
			<g>
				<path id="b15GPB3ENt" class="st1" d="M333.7,248c0,18.8-15.4,34.1-34.3,34.1c-19,0-34.3-15.3-34.3-34.1
					c0-18.9,15.4-34.2,34.3-34.2C318.3,213.8,333.7,229.1,333.7,248z"/>
			</g>
		</g>
		<g>
			<g>
				<path id="hyQfF1OuW" class="st1" d="M479.5,390.8c0,18.9-15.4,34.1-34.3,34.1c-19,0-34.3-15.3-34.3-34.1s15.4-34.1,34.3-34.1
					C464.1,356.7,479.5,372,479.5,390.8z"/>
			</g>
		</g>
	</g>
</g>
</svg>
